<svg xmlns="http://www.w3.org/2000/svg" xmlns:svg="http://www.w3.org/2000/svg" id="svg68" width="76" height="42.667" version="1.1" viewBox="0 0 76 42.667" xml:space="preserve"><metadata id="metadata74"/><defs id="defs72"><clipPath id="clipPath84" clipPathUnits="userSpaceOnUse"><path id="path82" d="M 0,32 H 57 V 0 H 0 Z"/></clipPath><clipPath id="clipPath134" clipPathUnits="userSpaceOnUse"><path id="path132" d="M 28.4823,19.9219 H 53.6632 V 11.927 H 28.4823 Z"/></clipPath></defs><g id="g10" transform="matrix(1.3333333,0,0,-1.3333333,0,42.666667)"><g id="g78"><g id="g80" clip-path="url(#clipPath84)"><g id="g86" transform="translate(4.7276,14.0568)"><path id="path88" d="m 0,0 v 5.8 h 15.326 c 5.838,0 8.429,-3.47 8.429,-6.81 h -3.037 l -0.284,0.693 z" style="fill:#d8d8d8;fill-opacity:1;fill-rule:nonzero;stroke:none"/></g><g id="g90" transform="translate(27.5142,13.1657)"><path id="path92" d="m 0,0 c -0.47,2.138 -1.641,3.447 -3.683,4.121 -1.823,0.601 -4.116,0.601 -6.333,0.601 h -12.771 v 0.371 h 12.771 c 4.518,0 9.191,0 10.289,-4.99 z" style="fill:#a09f9f;fill-opacity:1;fill-rule:nonzero;stroke:none"/></g><path id="path94" d="M 16.053,16.699 H 4.728 v 0.371 h 11.325 z" style="fill:#a09f9f;fill-opacity:1;fill-rule:nonzero;stroke:none"/><g id="g96" transform="translate(26.8389,13.152)"><path id="path98" d="m 0,0 c -0.407,1.101 -1.571,1.86 -3.459,2.257 -1.583,0.333 -3.278,0.331 -4.29,0.33 h -0.171 -8.529 v 0.371 h 8.699 c 2.086,0.002 6.968,0.009 8.006,-2.796 z" style="fill:#a09f9f;fill-opacity:1;fill-rule:nonzero;stroke:none"/></g><path id="path100" d="M 7.231,15.739 H 4.727 v 0.371 h 2.504 z" style="fill:#a09f9f;fill-opacity:1;fill-rule:nonzero;stroke:none"/><path id="path102" d="M 19.136,18.877 H 9.343 v 0.371 h 9.793 z" style="fill:#a09f9f;fill-opacity:1;fill-rule:nonzero;stroke:none"/><g id="g104" transform="translate(52.2368,14.0568)"><path id="path106" d="m 0,0 v 5.8 h -15.325 c -5.839,0 -8.429,-3.47 -8.429,-6.81 h 3.036 l 0.284,0.693 z" style="fill:#d8d8d8;fill-opacity:1;fill-rule:nonzero;stroke:none"/></g><g id="g108" transform="translate(29.4502,13.1657)"><path id="path110" d="m 0,0 -0.272,0.103 c 1.098,4.99 5.77,4.99 10.288,4.99 V 4.722 c -2.217,0 -4.509,0 -6.333,-0.601 C 1.641,3.447 0.471,2.138 0,0" style="fill:#a09f9f;fill-opacity:1;fill-rule:nonzero;stroke:none"/></g><path id="path112" d="m 52.237,17.887 h -6.316 v 0.371 h 6.316 z" style="fill:#a09f9f;fill-opacity:1;fill-rule:nonzero;stroke:none"/><path id="path114" d="M 52.237,16.699 H 38.682 v 0.371 h 13.555 z" style="fill:#a09f9f;fill-opacity:1;fill-rule:nonzero;stroke:none"/><g id="g116" transform="translate(30.1255,13.152)"><path id="path118" d="M 0,0 -0.255,0.162 C 0.783,2.967 5.664,2.96 7.75,2.958 h 0.17 5.122 V 2.587 H 7.75 C 6.737,2.588 5.042,2.59 3.459,2.257 1.571,1.86 0.407,1.101 0,0" style="fill:#a09f9f;fill-opacity:1;fill-rule:nonzero;stroke:none"/></g><path id="path120" d="m 52.237,15.739 h -7.461 v 0.371 h 7.461 z" style="fill:#a09f9f;fill-opacity:1;fill-rule:nonzero;stroke:none"/><path id="path122" d="m 52.237,18.877 h -9.793 v 0.371 h 9.793 z" style="fill:#a09f9f;fill-opacity:1;fill-rule:nonzero;stroke:none"/><g id="g124" transform="translate(30.9761,14.6037)"><path id="path126" d="M 0,0 V -1.387 H -4.987 V 0 H -27.675 V -1.387 H -5.908 V -2.742 H 0.92 v 1.355 H 22.687 V 0 Z" style="fill:#e3385d;fill-opacity:1;fill-rule:nonzero;stroke:none"/></g><g id="g128"><g id="g142"><g style="opacity:.25" id="g140" clip-path="url(#clipPath134)"><g id="g138" transform="translate(52.2368,15.8044)"><path id="path136" d="m 0,0 v 0.371 0.588 0.372 0.817 0.371 0.618 0.371 0.61 h -15.325 c -5.739,0 -8.334,-3.354 -8.421,-6.64 h -0.008 v -1.355 h 3.413 v 1.355 H 1.426 v 1.387 l -1.426,0 z" style="fill:#b48537;fill-opacity:1;fill-rule:nonzero;stroke:none"/></g></g></g></g></g></g></g></svg>