<svg xmlns="http://www.w3.org/2000/svg" xmlns:svg="http://www.w3.org/2000/svg" id="svg2" width="1056" height="816" version="1.1" viewBox="0 0 1056 816" xml:space="preserve"><metadata id="metadata8"/><defs id="defs6"><clipPath id="clipPath18" clipPathUnits="userSpaceOnUse"><path id="path16" d="M 0,612 H 792 V 0 H 0 Z"/></clipPath></defs><g id="g10" transform="matrix(-1.3333333,0,0,-1.3333333,406.49248,816)"><g id="g1026" transform="translate(1.6207628,-234.03814)"><g id="g20" transform="translate(32.15223,295.07985)"><path style="fill:#fff;fill-opacity:1;fill-rule:nonzero;stroke:none" id="path22" d="m 0,0 c 0,-6.719 5.447,-12.165 12.166,-12.165 6.718,0 12.165,5.446 12.165,12.165 0,6.719 -5.447,12.165 -12.165,12.165 C 5.447,12.165 0,6.719 0,0"/></g><g id="g24" transform="translate(44.31773,303.22245)"><path style="fill:#231f20;fill-opacity:1;fill-rule:nonzero;stroke:none" id="path26" d="m 0,0 c -4.49,0 -8.143,-3.652 -8.143,-8.143 0,-4.489 3.653,-8.142 8.143,-8.142 4.49,0 8.142,3.653 8.142,8.142 C 8.142,-3.652 4.49,0 0,0 m 0,-24.33 c -8.926,0 -16.188,7.262 -16.188,16.187 0,8.927 7.262,16.189 16.188,16.189 8.926,0 16.188,-7.262 16.188,-16.189 C 16.188,-17.068 8.926,-24.33 0,-24.33"/></g><g id="g28" transform="translate(44.31773,301.29275)"><path style="fill:#30a287;fill-opacity:1;fill-rule:nonzero;stroke:none" id="path30" d="m 0,0 c -3.426,0 -6.213,-2.787 -6.213,-6.213 0,-3.426 2.787,-6.213 6.213,-6.213 3.425,0 6.213,2.787 6.213,6.213 C 6.213,-2.787 3.425,0 0,0 m 0,-16.896 c -5.891,0 -10.683,4.792 -10.683,10.683 0,5.891 4.792,10.683 10.683,10.683 5.891,0 10.683,-4.792 10.683,-10.683 0,-5.891 -4.792,-10.683 -10.683,-10.683"/></g><path style="fill:#30a287;fill-opacity:1;fill-rule:nonzero;stroke:none" id="path32" d="m 36.38223,297.60855 h 7.194 v 18.337 h -7.194 z"/><g id="g34" transform="translate(37.95693,295.04275)"><path style="fill:#30a287;fill-opacity:1;fill-rule:nonzero;stroke:none" id="path36" d="m 0,0 4.337,-3.22 c 1.726,-1.282 4.188,-0.918 5.47,0.809 1.281,1.725 0.918,4.187 -0.809,5.469 L 4.661,6.278 C 2.935,7.56 0.473,7.196 -0.809,5.47 -2.09,3.743 -1.727,1.282 0,0"/></g><g id="g38" transform="translate(42.45593,295.07985)"><path style="fill:#231f20;fill-opacity:1;fill-rule:nonzero;stroke:none" id="path40" d="M 0,0 C 0,-1.028 0.833,-1.861 1.862,-1.861 2.89,-1.861 3.724,-1.028 3.724,0 3.724,1.028 2.89,1.862 1.862,1.862 0.833,1.862 0,1.028 0,0"/></g><g id="g42" transform="translate(251.98423,295.07985)"><path style="fill:#fff;fill-opacity:1;fill-rule:nonzero;stroke:none" id="path44" d="m 0,0 c 0,-6.719 5.446,-12.165 12.165,-12.165 6.719,0 12.166,5.446 12.166,12.165 0,6.719 -5.447,12.165 -12.166,12.165 C 5.446,12.165 0,6.719 0,0"/></g><g id="g46" transform="translate(264.14933,303.22245)"><path style="fill:#231f20;fill-opacity:1;fill-rule:nonzero;stroke:none" id="path48" d="m 0,0 c -4.489,0 -8.143,-3.652 -8.143,-8.143 0,-4.489 3.654,-8.142 8.143,-8.142 4.49,0 8.143,3.653 8.143,8.142 C 8.143,-3.652 4.49,0 0,0 m 0,-24.33 c -8.926,0 -16.187,7.262 -16.187,16.187 0,8.927 7.261,16.189 16.187,16.189 8.927,0 16.188,-7.262 16.188,-16.189 C 16.188,-17.068 8.927,-24.33 0,-24.33"/></g><g id="g50" transform="translate(264.14933,301.29275)"><path style="fill:#30a287;fill-opacity:1;fill-rule:nonzero;stroke:none" id="path52" d="m 0,0 c -3.426,0 -6.213,-2.787 -6.213,-6.213 0,-3.426 2.787,-6.213 6.213,-6.213 3.426,0 6.214,2.787 6.214,6.213 C 6.214,-2.787 3.426,0 0,0 m 0,-16.896 c -5.891,0 -10.683,4.792 -10.683,10.683 0,5.891 4.792,10.683 10.683,10.683 5.892,0 10.684,-4.792 10.684,-10.683 0,-5.891 -4.792,-10.683 -10.684,-10.683"/></g><path style="fill:#30a287;fill-opacity:1;fill-rule:nonzero;stroke:none" id="path54" d="m 256.21423,297.60855 h 7.193 v 18.337 h -7.193 z"/><g id="g56" transform="translate(257.78893,295.04275)"><path style="fill:#30a287;fill-opacity:1;fill-rule:nonzero;stroke:none" id="path58" d="m 0,0 4.337,-3.22 c 1.726,-1.282 4.187,-0.918 5.47,0.809 1.281,1.725 0.918,4.187 -0.809,5.469 L 4.661,6.278 C 2.935,7.56 0.473,7.196 -0.809,5.47 -2.091,3.743 -1.727,1.282 0,0"/></g><g id="g60" transform="translate(262.28803,295.07985)"><path style="fill:#231f20;fill-opacity:1;fill-rule:nonzero;stroke:none" id="path62" d="M 0,0 C 0,-1.028 0.834,-1.861 1.861,-1.861 2.89,-1.861 3.724,-1.028 3.724,0 3.724,1.028 2.89,1.862 1.861,1.862 0.834,1.862 0,1.028 0,0"/></g><g id="g64" transform="translate(286.33583,587.13405)"><path style="fill:#30a287;fill-opacity:1;fill-rule:nonzero;stroke:none" id="path66" d="M 0,0 -265.375,-63.544 V -271.4 H 0 Z"/></g><g id="g68" transform="translate(29.59223,473.22635)"><path style="fill:#6bbda7;fill-opacity:1;fill-rule:nonzero;stroke:none" id="path70" d="m 0,0 h -26 c -2.888,0 -5.25,2.363 -5.25,5.25 0,2.888 2.362,5.25 5.25,5.25 H 0 C 2.888,10.5 5.25,8.138 5.25,5.25 5.25,2.363 2.888,0 0,0"/></g><g id="g72" transform="translate(3.59223,473.22635)"><path style="fill:#317360;fill-opacity:1;fill-rule:nonzero;stroke:none" id="path74" d="m 0,0 h 26 c 2.887,0 5.25,2.362 5.25,5.25 H -5.25 C -5.25,2.362 -2.888,0 0,0"/></g><g id="g987" transform="rotate(-80,160.6699,490.51644)"><g id="g76" transform="translate(-181.01257,574.46831)"><path id="path78" d="m 0,0 6.382,10.136 252.096,62.458 6.897,-9.05 z" style="fill:#231f20;fill-opacity:1;fill-rule:nonzero;stroke:none"/></g><g id="g80" transform="translate(-174.63057,584.60431)"><path id="path82" d="m 0,0 -4.098,-6.51 259.556,62.151 -4.904,6.435 z m -10.559,-11.142 8.664,13.763 253.64,62.84 8.891,-11.665 z" style="fill:#a8a9ad;fill-opacity:1;fill-rule:nonzero;stroke:none"/></g></g><path style="fill:#317360;fill-opacity:1;fill-rule:nonzero;stroke:none" id="path84" d="m 290.00823,405.22655 h -272.721 v 46.208 h 272.721 z"/><path style="fill:#30a287;fill-opacity:1;fill-rule:nonzero;stroke:none" id="path86" d="m 18.78723,406.72655 h 269.722 v 43.208 h -269.722 z m 272.721,-3 h -275.722 v 49.208 h 275.722 z"/><path id="path90" d="m 293.34173,589.72635 -272.381,-66.136 h -9.619 v -20.98 h 9.619 l 272.381,62.814 z" style="fill:#317360;fill-opacity:1;fill-rule:nonzero;stroke:none"/><path id="path94" d="m 12.84173,504.11015 h 7.948 l 271.052,62.508 v 21.2 l -270.701,-65.728 h -8.299 z m 8.29,-3 h -11.29 v 23.98 h 10.939 l 274.061,66.544 v -27.403 z" style="fill:#30a287;fill-opacity:1;fill-rule:nonzero;stroke:none"/></g></g></svg>