<svg xmlns="http://www.w3.org/2000/svg" xmlns:svg="http://www.w3.org/2000/svg" id="svg6061" width="210mm" height="297mm" version="1.1" viewBox="0 0 210 297"><defs id="defs6055"><clipPath id="clipPath984" clipPathUnits="userSpaceOnUse"><path id="path982" d="M 97.7286,78.5623 H 113.75 V 28.0764 H 97.7286 Z"/></clipPath></defs><metadata id="metadata6058"/><g id="layer1"><g id="g940" transform="matrix(0.35277777,0,0,-0.35277777,5.7186297,4.2828348)"><path id="path942" d="m 0,0 4.047,-0.713 -4.619,-26.167 -4.047,0.712 z" style="fill:#e1a727;fill-opacity:1;fill-rule:nonzero;stroke:none"/></g><g id="g944" transform="matrix(0.35277777,0,0,-0.35277777,7.54662,3.4718648)"><path id="path946" d="m 0,0 4.094,-0.357 -2.996,-34.208 -4.094,0.357 z" style="fill:#e1a727;fill-opacity:1;fill-rule:nonzero;stroke:none"/></g><path id="path948" d="M 6.1973853,0.15494482 H 7.6469492 V 14.287925 H 6.1973853 Z" style="fill:#f3ce74;fill-opacity:1;fill-rule:nonzero;stroke:none;stroke-width:.35277775"/><g id="g950" transform="matrix(0.35277777,0,0,-0.35277777,10.146979,2.9780148)"><path id="path952" d="m 0,0 3.861,-1.404 -10.637,-29.195 -3.862,1.404 z" style="fill:#e1a726;fill-opacity:1;fill-rule:nonzero;stroke:none"/></g><g id="g954" transform="matrix(0.35277777,0,0,-0.35277777,8.2714725,2.0297448)"><path id="path956" d="m 0,0 4.093,-0.357 -2.996,-34.208 -4.093,0.357 z" style="fill:#f5b833;fill-opacity:1;fill-rule:nonzero;stroke:none"/></g><g id="g958" transform="matrix(0.35277777,0,0,-0.35277777,10.978618,1.8917748)"><path id="path960" d="M 0,0 4.046,-0.713 -1.923,-34.53 -5.97,-33.817 Z" style="fill:#f2cf74;fill-opacity:1;fill-rule:nonzero;stroke:none"/></g><g id="g962" transform="matrix(0.35277777,0,0,-0.35277777,3.4865703,1.5817148)"><path id="path964" d="M 0,0 4.046,0.713 10.727,-37.13 6.68,-37.843 Z" style="fill:#f5b833;fill-opacity:1;fill-rule:nonzero;stroke:none"/></g><g id="g966" transform="matrix(0.35277777,0,0,-0.35277777,2.3245547,3.4286148)"><path id="path968" d="m 0,0 3.97,1.062 9.358,-34.889 -3.969,-1.062 z" style="fill:#e1a727;fill-opacity:1;fill-rule:nonzero;stroke:none"/></g><g id="g970" transform="matrix(0.35277777,0,0,-0.35277777,0.58786693,3.5077048)"><path id="path972" d="m 0,0 3.861,1.404 11.337,-31.115 -3.861,-1.404 z" style="fill:#f2cf74;fill-opacity:1;fill-rule:nonzero;stroke:none"/></g><g id="g974" transform="matrix(0.35277777,0,0,-0.35277777,9.2291928,6.2339748)"><path id="path976" d="M 0,0 H 7.429 L 3.715,-33.255 H 3.631 c -2.838,0.511 -6.566,0.821 -10.648,0.821 -4.082,0 -7.809,-0.31 -10.647,-0.821 H -18.16 L -21.875,0 h 7.842 c 0,-3.854 3.141,-6.979 7.016,-6.979 C -3.142,-6.979 0,-3.854 0,0" style="fill:#ef2953;fill-opacity:1;fill-rule:nonzero;stroke:none"/></g><g id="g978" transform="matrix(0.35277777,0,0,-0.35277777,-27.72255,27.956655)"><g id="g992"><g style="opacity:.14999402" id="g990" clip-path="url(#clipPath984)"><g id="g988" transform="translate(113.75,72.9267)"><path id="path986" d="m 0,0 -3.781,0.713 -0.611,-3.699 -1.591,0.62 -1.757,-5.158 0.613,7.488 -3.825,0.358 -0.347,-4.235 -1.307,0.122 v 9.427 h -3.415 V -44.04 c 0.347,0.005 0.695,0.011 1.048,0.011 3.816,0 7.299,-0.31 9.951,-0.821 h 0.078 l 3.471,33.255 h -0.439 z" style="fill:#656767;fill-opacity:1;fill-rule:nonzero;stroke:none"/></g></g></g></g></g></svg>