<svg xmlns="http://www.w3.org/2000/svg" xmlns:svg="http://www.w3.org/2000/svg" id="svg144" width="76" height="42.667" version="1.1" viewBox="0 0 76 42.667" xml:space="preserve"><metadata id="metadata150"/><defs id="defs148"><clipPath id="clipPath160" clipPathUnits="userSpaceOnUse"><path id="path158" d="M 0,32 H 57 V 0 H 0 Z"/></clipPath><clipPath id="clipPath196" clipPathUnits="userSpaceOnUse"><path id="path194" d="M 28.5909,24.456 H 51.641 V 7.96167 H 28.5909 Z"/></clipPath></defs><g id="g10" transform="matrix(1.3333333,0,0,-1.3333333,0,42.666667)"><g id="g154"><g id="g156" clip-path="url(#clipPath160)"><g id="g162" transform="translate(5.4058,12.0729)"><path id="path164" d="m 0,0 c 0,0 -1.19,-4.112 20.592,-4.111 h 22.886 c 1.409,0 2.552,1.006 2.552,2.246 V 0.99 c 0,0 -10.881,0 -23.794,-1.447 C 10.198,-1.805 0,0 0,0" style="fill:#535d6c;fill-opacity:1;fill-rule:nonzero;stroke:none"/></g><g id="g166" transform="translate(42.5689,19.1926)"><path id="path168" d="m 0,0 c -9.885,0 -14.927,5.044 -14.927,5.044 0,0 4.512,0.7 6.718,-0.399 C -5.651,3.37 -4.228,3.04 -1.463,3.234 1.451,3.439 0.913,4.875 3.181,5.209 5.128,5.496 7.233,2.617 7.233,2.617 7.233,2.617 3.998,2.771 0,0" style="fill:#7a8e9b;fill-opacity:1;fill-rule:nonzero;stroke:none"/></g><g id="g170" transform="translate(36.2832,12.4142)"><path id="path172" d="m 0,0 c 8.78,0.648 15.152,0.649 15.152,0.649 0,0 1.06,5.463 -1.633,8.746 0,0 -7.3,0.35 -13.519,-9.395" style="fill:#1979bf;fill-opacity:1;fill-rule:nonzero;stroke:none"/></g><g id="g174" transform="translate(5.4058,12.0729)"><path id="path176" d="m 0,0 c 0,0 -0.584,3.541 2.379,4.283 3.739,0.937 6.191,-0.157 9.864,2.056 0,0 7.138,-1.885 9.993,-6.796 C 10.198,-1.805 0,0 0,0" style="fill:#1979bf;fill-opacity:1;fill-rule:nonzero;stroke:none"/></g><g id="g178" transform="translate(42.5689,19.1926)"><path id="path180" d="m 0,0 c -9.885,0 -14.927,5.044 -14.927,5.044 -0.946,-0.135 -1.757,-0.328 -2.484,-0.556 0.128,-0.512 0.548,-1.457 1.932,-1.832 0.331,-0.09 0.514,-0.397 0.413,-0.686 -0.101,-0.29 -0.451,-0.452 -0.78,-0.364 -0.723,0.197 -1.277,0.515 -1.696,0.884 -0.557,0.489 -0.874,1.068 -1.035,1.57 -0.846,-0.365 -1.545,-0.788 -2.149,-1.239 0.145,-0.47 0.681,-1.755 2.29,-2.082 0.335,-0.069 0.545,-0.364 0.467,-0.659 -0.078,-0.296 -0.413,-0.479 -0.748,-0.411 -0.863,0.176 -1.506,0.539 -1.983,0.958 -0.508,0.447 -0.823,0.956 -1.018,1.372 -1.108,-1.005 -1.974,-2.04 -3.202,-2.78 0,0 7.138,-1.885 9.993,-6.795 3.031,0.339 5.949,0.599 8.641,0.798 C -4.207,-3.521 -2.007,-1.392 0,0" style="fill:#5eb0e2;fill-opacity:1;fill-rule:nonzero;stroke:none"/></g><g id="g182" transform="translate(26.7232,20.799)"><path id="path184" d="M 0,0 C 0.329,-0.089 0.678,0.074 0.78,0.363 0.881,0.653 0.698,0.96 0.367,1.05 -1.017,1.424 -1.437,2.369 -1.565,2.881 -1.982,2.75 -2.373,2.609 -2.731,2.454 -2.57,1.951 -2.253,1.373 -1.696,0.883 -1.277,0.514 -0.723,0.196 0,0" style="fill:#535d6c;fill-opacity:1;fill-rule:nonzero;stroke:none"/></g><g id="g186" transform="translate(23.8516,18.862)"><path id="path188" d="M 0,0 C 0.335,-0.068 0.67,0.115 0.748,0.411 0.826,0.706 0.616,1 0.281,1.07 -1.328,1.396 -1.864,2.681 -2.008,3.152 -2.366,2.884 -2.693,2.608 -3.001,2.329 -2.806,1.914 -2.49,1.405 -1.982,0.958 -1.506,0.539 -0.863,0.176 0,0" style="fill:#535d6c;fill-opacity:1;fill-rule:nonzero;stroke:none"/></g><g id="g190"><g id="g204"><g style="opacity:.21000701" id="g202" clip-path="url(#clipPath196)"><g id="g200" transform="translate(42.4629,19.1144)"><path id="path198" d="M 0,0 C 0.035,0.025 0.071,0.054 0.106,0.078 0.127,0.092 0.146,0.104 0.167,0.118 0.112,0.08 0.056,0.04 0,0 m -6.25,-6.706 c 0.023,0.002 0.047,0.004 0.07,0.006 0.03,0.002 0.059,0.004 0.089,0.006 z M 7.339,2.695 c 0,0 -2.105,2.879 -4.052,2.592 C 1.019,4.953 1.557,3.517 -1.357,3.312 -4.122,3.118 -5.545,3.448 -8.104,4.723 -9.681,5.509 -12.429,5.375 -13.872,5.235 V -11.153 H 6.42 c 1.41,0.001 2.553,1.006 2.553,2.246 v 2.856 c 0,0 1.059,5.463 -1.634,8.746" style="fill:#535d6c;fill-opacity:1;fill-rule:nonzero;stroke:none"/></g></g></g></g></g></g></g></svg>