<svg xmlns="http://www.w3.org/2000/svg" xmlns:svg="http://www.w3.org/2000/svg" id="svg2" width="71.25" height="40" version="1.1" viewBox="0 0 71.25 40" xml:space="preserve"><metadata id="metadata8"/><defs id="defs6"><clipPath id="clipPath16" clipPathUnits="userSpaceOnUse"><path id="path18" d="M 0,32 57,32 57,0 0,0 0,32 Z"/></clipPath><clipPath id="clipPath112" clipPathUnits="userSpaceOnUse"><path id="path114" d="m 27.4926,24.416 27.5824,0 0,-15.90729 -27.5824,0 0,15.90729 z"/></clipPath></defs><g id="g10" transform="matrix(1.25,0,0,-1.25,0,40)"><g id="g12"><g id="g14" clip-path="url(#clipPath16)"><g id="g20" transform="translate(55.0752,12.7646)"><path id="path22" d="m 0,0 c 0,-4.168 -6.131,-3.755 -15.052,-3.634 -3.622,0.05 -7.705,-0.622 -12.023,-0.622 -4.177,0 -8.134,0.68 -11.667,0.628 C -47.855,-3.765 -54.15,-4.223 -54.15,0 c 0,5.86 11.614,11.651 26.567,11.651 C -12.63,11.651 0,5.86 0,0" style="fill:#d29c33;fill-opacity:1;fill-rule:nonzero;stroke:none"/></g><g id="g24" transform="translate(17.2334,23.0224)"><path id="path26" d="m 0,0 c -0.433,-0.133 -0.67,-0.398 -0.567,-0.602 0.102,-0.204 0.506,-0.271 0.939,-0.137 0.433,0.134 0.919,0.71 0.919,0.71 0,0 -0.858,0.162 -1.291,0.029" style="fill:#fcf695;fill-opacity:1;fill-rule:nonzero;stroke:none"/></g><g id="g28" transform="translate(21.8667,23.2417)"><path id="path30" d="m 0,0 c -0.416,0.163 -0.826,0.124 -0.951,-0.073 -0.125,-0.196 0.082,-0.475 0.498,-0.638 0.416,-0.163 1.289,-0.06 1.289,-0.06 0,0 -0.419,0.608 -0.836,0.771" style="fill:#fcf695;fill-opacity:1;fill-rule:nonzero;stroke:none"/></g><g id="g32" transform="translate(28.2158,18.7246)"><path id="path34" d="m 0,0 c 0.312,0.271 0.374,0.59 0.166,0.737 -0.208,0.147 -0.608,0.065 -0.919,-0.205 -0.312,-0.27 -0.419,-0.956 -0.419,-0.956 0,0 0.86,0.153 1.172,0.424" style="fill:#fcf695;fill-opacity:1;fill-rule:nonzero;stroke:none"/></g><g id="g36" transform="translate(34.8369,22.5268)"><path id="path38" d="M 0,0 C 0.371,0.219 0.51,0.524 0.341,0.699 0.172,0.874 -0.24,0.854 -0.611,0.634 -0.982,0.415 -1.254,-0.243 -1.254,-0.243 c 0,0 0.882,0.024 1.254,0.243" style="fill:#fcf695;fill-opacity:1;fill-rule:nonzero;stroke:none"/></g><g id="g40" transform="translate(35.083,19.584)"><path id="path42" d="m 0,0 c -0.005,-0.364 0.219,-0.636 0.499,-0.639 0.28,-0.002 0.511,0.266 0.516,0.63 C 1.021,0.355 0.521,0.925 0.521,0.925 0.521,0.925 0.005,0.364 0,0" style="fill:#fcf695;fill-opacity:1;fill-rule:nonzero;stroke:none"/></g><g id="g44" transform="translate(25.4824,20.7759)"><path id="path46" d="M 0,0 C -0.208,-0.326 -0.158,-0.646 0.092,-0.744 0.343,-0.842 0.7,-0.68 0.908,-0.354 1.116,-0.029 0.984,0.655 0.984,0.655 0.984,0.655 0.208,0.326 0,0" style="fill:#fcf695;fill-opacity:1;fill-rule:nonzero;stroke:none"/></g><g id="g48" transform="translate(38.6445,21.4756)"><path id="path50" d="M 0,0 C 0.433,0.134 0.67,0.398 0.566,0.603 0.464,0.807 0.06,0.873 -0.373,0.739 -0.806,0.605 -1.291,0.028 -1.291,0.028 -1.291,0.028 -0.433,-0.134 0,0" style="fill:#fcf695;fill-opacity:1;fill-rule:nonzero;stroke:none"/></g><g id="g52" transform="translate(32.9492,20.1582)"><path id="path54" d="M 0,0 C 0.416,-0.162 0.826,-0.123 0.951,0.073 1.076,0.27 0.869,0.549 0.452,0.711 0.036,0.874 -0.837,0.77 -0.837,0.77 -0.837,0.77 -0.416,0.163 0,0" style="fill:#fcf695;fill-opacity:1;fill-rule:nonzero;stroke:none"/></g><g id="g56" transform="translate(29.7646,23.0058)"><path id="path58" d="m 0,0 c -0.311,-0.271 -0.373,-0.59 -0.164,-0.737 0.208,-0.147 0.607,-0.065 0.919,0.205 0.31,0.271 0.417,0.957 0.417,0.957 C 1.172,0.425 0.312,0.271 0,0" style="fill:#fcf695;fill-opacity:1;fill-rule:nonzero;stroke:none"/></g><g id="g60" transform="translate(21.3701,19.6084)"><path id="path62" d="m 0,0 c -0.371,-0.219 -0.509,-0.524 -0.34,-0.699 0.169,-0.175 0.581,-0.154 0.952,0.065 0.371,0.219 0.641,0.878 0.641,0.878 C 1.253,0.244 0.371,0.22 0,0" style="fill:#fcf695;fill-opacity:1;fill-rule:nonzero;stroke:none"/></g><g id="g64" transform="translate(25.9136,23.4355)"><path id="path66" d="m 0,0 c -0.457,0.069 -0.838,-0.054 -0.892,-0.27 -0.053,-0.215 0.243,-0.441 0.699,-0.51 0.457,-0.069 1.262,0.214 1.262,0.214 0,0 -0.612,0.497 -1.069,0.566" style="fill:#fcf695;fill-opacity:1;fill-rule:nonzero;stroke:none"/></g><g id="g68" transform="translate(30.5039,20.5361)"><path id="path70" d="M 0,0 C 0.207,0.326 0.157,0.646 -0.094,0.745 -0.344,0.842 -0.701,0.68 -0.908,0.354 -1.116,0.028 -0.984,-0.655 -0.984,-0.655 c 0,0 0.776,0.329 0.984,0.655" style="fill:#fcf695;fill-opacity:1;fill-rule:nonzero;stroke:none"/></g><g id="g72" transform="translate(18.9839,21.0127)"><path id="path74" d="m 0,0 c -0.208,0.326 -0.566,0.487 -0.816,0.389 -0.251,-0.098 -0.3,-0.42 -0.091,-0.745 0.208,-0.326 0.986,-0.653 0.986,-0.653 0,0 0.129,0.684 -0.079,1.009" style="fill:#fcf695;fill-opacity:1;fill-rule:nonzero;stroke:none"/></g><g id="g76" transform="translate(12.5625,18.9824)"><path id="path78" d="M 0,0 C 0.312,-0.27 0.712,-0.351 0.919,-0.204 1.127,-0.056 1.064,0.263 0.752,0.533 0.44,0.803 -0.421,0.956 -0.421,0.956 -0.421,0.956 -0.312,0.27 0,0" style="fill:#fcf695;fill-opacity:1;fill-rule:nonzero;stroke:none"/></g><g id="g80" transform="translate(13.7866,21.5068)"><path id="path82" d="M 0,0 C -0.249,-0.308 -0.24,-0.631 -0.003,-0.748 0.233,-0.865 0.61,-0.732 0.858,-0.424 1.106,-0.116 1.063,0.574 1.063,0.574 1.063,0.574 0.248,0.308 0,0" style="fill:#fcf695;fill-opacity:1;fill-rule:nonzero;stroke:none"/></g><g id="g84" transform="translate(24.1235,21.6323)"><path id="path86" d="M 0,0 C 0.331,0.256 0.417,0.572 0.22,0.728 0.023,0.884 -0.382,0.821 -0.713,0.565 -1.044,0.31 -1.202,-0.371 -1.202,-0.371 c 0,0 0.871,0.115 1.202,0.371" style="fill:#fcf695;fill-opacity:1;fill-rule:nonzero;stroke:none"/></g><g id="g88" transform="translate(39.1924,18.7334)"><path id="path90" d="M 0,0 C 0.207,0.326 0.158,0.646 -0.093,0.745 -0.344,0.842 -0.701,0.68 -0.908,0.354 -1.115,0.028 -0.983,-0.655 -0.983,-0.655 c 0,0 0.776,0.329 0.983,0.655" style="fill:#fcf695;fill-opacity:1;fill-rule:nonzero;stroke:none"/></g><g id="g92" transform="translate(9.6758,19.1011)"><path id="path94" d="M 0,0 C 0.331,0.256 0.417,0.572 0.22,0.728 0.022,0.884 -0.382,0.821 -0.713,0.565 -1.044,0.31 -1.202,-0.371 -1.202,-0.371 c 0,0 0.871,0.115 1.202,0.371" style="fill:#fcf695;fill-opacity:1;fill-rule:nonzero;stroke:none"/></g><g id="g96" transform="translate(44.8467,20.0556)"><path id="path98" d="m 0,0 c -0.278,0.292 -0.666,0.402 -0.891,0.271 -0.224,-0.131 -0.201,-0.454 0.077,-0.746 0.278,-0.292 1.117,-0.507 1.117,-0.507 0,0 -0.026,0.69 -0.303,0.982" style="fill:#fcf695;fill-opacity:1;fill-rule:nonzero;stroke:none"/></g><g id="g100" transform="translate(16.6636,18.4746)"><path id="path102" d="m 0,0 c 0.106,-0.354 0.407,-0.576 0.68,-0.526 0.273,0.05 0.414,0.354 0.308,0.708 C 0.881,0.537 0.221,0.996 0.221,0.996 0.221,0.996 -0.107,0.354 0,0" style="fill:#fcf695;fill-opacity:1;fill-rule:nonzero;stroke:none"/></g><g id="g104" transform="translate(41.2979,19.9111)"><path id="path106" d="M 0,0 C -0.208,-0.326 -0.158,-0.646 0.093,-0.745 0.343,-0.842 0.7,-0.681 0.908,-0.354 1.115,-0.029 0.984,0.654 0.984,0.654 0.984,0.654 0.208,0.326 0,0" style="fill:#fcf695;fill-opacity:1;fill-rule:nonzero;stroke:none"/></g><g id="g108"><g id="g116"><g style="opacity:.25" id="g118" clip-path="url(#clipPath112)"><g id="g120" transform="translate(55.0752,12.7646)"><path id="path122" d="m 0,0 c 0,-4.168 -6.131,-3.755 -15.052,-3.634 -3.622,0.05 -7.931,-0.622 -12.25,-0.622 l -0.281,15.907 C -12.63,11.651 0,5.86 0,0" style="fill:#b07f29;fill-opacity:1;fill-rule:nonzero;stroke:none"/></g></g></g></g></g></g></g></svg>